name rise49.8558peak67.6521fall70.3087.mot
datacolumns 19
datarows 24
range 17.63660100000000 17.67493400000000
endheader
time	ground_force1_vx	ground_force1_vy	ground_force1_vz	ground_force1_px	ground_force1_py	ground_force1_pz	ground_force2_vx	ground_force2_vy	ground_force2_vz	ground_force2_px	ground_force2_py	ground_force2_pz	ground_torque1_x	ground_torque1_y	ground_torque1_z	ground_torque2_x	ground_torque2_y	ground_torque2_z	
17.63660100000000	55.50129100000000	701.93019600000002	51.14159500000000	0.38080400000000	0.00000000000000	0.11436600000000	-0.17531400000000	27.07500700000000	3.18262400000000	0.09752700000000	0.00000000000000	-0.04967700000000	0.00000000000000	25.04183800000000	0.00000000000000	0.00000000000000	0.44200100000000	0.00000000000000	
17.63826900000000	54.71150400000000	704.71994900000004	51.46297500000000	0.37911600000000	0.00000000000000	0.11445700000000	0.15057600000000	21.11744100000000	2.58233300000000	0.00000000000000	0.00000000000000	0.00000000000000	0.00000000000000	25.27022300000000	0.00000000000000	0.00000000000000	0.14483200000000	0.00000000000000	
17.63992900000000	53.92636400000000	707.47356600000001	51.79541200000000	0.37745200000000	0.00000000000000	0.11454900000000	0.36792700000000	15.69513200000000	2.00649600000000	0.00000000000000	0.00000000000000	0.00000000000000	0.00000000000000	25.50596400000000	0.00000000000000	0.00000000000000	0.13914200000000	0.00000000000000	
17.64159800000000	53.14657200000000	710.18952100000001	52.13846100000000	0.37581300000000	0.00000000000000	0.11464200000000	0.49127900000000	10.90052600000000	1.47230700000000	0.00000000000000	0.00000000000000	0.00000000000000	0.00000000000000	25.74869200000000	0.00000000000000	0.00000000000000	0.12561300000000	0.00000000000000	
17.64326600000000	52.37275200000000	712.86614199999997	52.49157100000000	0.37420000000000	0.00000000000000	0.11473600000000	0.53695700000000	6.80014100000000	0.99419400000000	0.00000000000000	0.00000000000000	0.00000000000000	0.00000000000000	25.99796700000000	0.00000000000000	0.00000000000000	0.10667000000000	0.00000000000000	
17.64493600000000	51.60545500000000	715.50162300000000	52.85408500000000	0.37261400000000	0.00000000000000	0.11483100000000	0.52204900000000	3.42937800000000	0.58286400000000	0.00000000000000	0.00000000000000	0.00000000000000	0.00000000000000	26.25329300000000	0.00000000000000	0.00000000000000	0.08463800000000	0.00000000000000	
17.64659600000000	50.84515800000000	718.09404099999995	53.22525200000000	0.37105700000000	0.00000000000000	0.11492600000000	0.00000000000000	0.00000000000000	0.00000000000000	0.00000000000000	0.00000000000000	0.00000000000000	0.00000000000000	26.51411300000000	0.00000000000000	0.00000000000000	0.00000000000000	0.00000000000000	
17.64826200000000	50.09226700000000	720.64136499999995	53.60422500000000	0.36952900000000	0.00000000000000	0.11502200000000	0.00000000000000	0.00000000000000	0.00000000000000	0.00000000000000	0.00000000000000	0.00000000000000	0.00000000000000	26.77981500000000	0.00000000000000	0.00000000000000	0.00000000000000	0.00000000000000	
17.64993000000000	49.34711800000000	723.14147100000002	53.99007000000000	0.36803100000000	0.00000000000000	0.11511800000000	0.00000000000000	0.00000000000000	0.00000000000000	0.00000000000000	0.00000000000000	0.00000000000000	0.00000000000000	27.04973800000000	0.00000000000000	0.00000000000000	0.00000000000000	0.00000000000000	
17.65160200000000	48.60998100000000	725.59215600000005	54.38177200000000	0.36656400000000	0.00000000000000	0.11521400000000	0.00000000000000	0.00000000000000	0.00000000000000	0.00000000000000	0.00000000000000	0.00000000000000	0.00000000000000	27.32317500000000	0.00000000000000	0.00000000000000	0.00000000000000	0.00000000000000	
17.65326800000000	47.88106100000000	727.99115600000005	54.77824100000000	0.36512900000000	0.00000000000000	0.11531000000000	0.00000000000000	0.00000000000000	0.00000000000000	0.00000000000000	0.00000000000000	0.00000000000000	0.00000000000000	27.59937800000000	0.00000000000000	0.00000000000000	0.00000000000000	0.00000000000000	
17.65492900000000	47.16050100000000	730.33615299999997	55.17831700000000	0.36372500000000	0.00000000000000	0.11540500000000	0.00000000000000	0.00000000000000	0.00000000000000	0.00000000000000	0.00000000000000	0.00000000000000	0.00000000000000	27.87756100000000	0.00000000000000	0.00000000000000	0.00000000000000	0.00000000000000	
17.65660400000000	46.44838400000000	732.62479900000005	55.58078000000000	0.36235300000000	0.00000000000000	0.11549900000000	0.00000000000000	0.00000000000000	0.00000000000000	0.00000000000000	0.00000000000000	0.00000000000000	0.00000000000000	28.15690500000000	0.00000000000000	0.00000000000000	0.00000000000000	0.00000000000000	
17.65827100000000	45.74473800000000	734.85472200000004	55.98435600000000	0.36101300000000	0.00000000000000	0.11559300000000	0.00000000000000	0.00000000000000	0.00000000000000	0.00000000000000	0.00000000000000	0.00000000000000	0.00000000000000	28.43656600000000	0.00000000000000	0.00000000000000	0.00000000000000	0.00000000000000	
17.65993400000000	45.04953800000000	737.02354900000000	56.38772600000000	0.35970600000000	0.00000000000000	0.11568500000000	0.00000000000000	0.00000000000000	0.00000000000000	0.00000000000000	0.00000000000000	0.00000000000000	0.00000000000000	28.71567400000000	0.00000000000000	0.00000000000000	0.00000000000000	0.00000000000000	
17.66159800000000	44.36271000000000	739.12891500000001	56.78953200000000	0.35843000000000	0.00000000000000	0.11577600000000	0.00000000000000	0.00000000000000	0.00000000000000	0.00000000000000	0.00000000000000	0.00000000000000	0.00000000000000	28.99334500000000	0.00000000000000	0.00000000000000	0.00000000000000	0.00000000000000	
17.66326700000000	43.68413200000000	741.16847800000005	57.18838400000000	0.35718700000000	0.00000000000000	0.11586500000000	0.00000000000000	0.00000000000000	0.00000000000000	0.00000000000000	0.00000000000000	0.00000000000000	0.00000000000000	29.26867900000000	0.00000000000000	0.00000000000000	0.00000000000000	0.00000000000000	
17.66493000000000	43.01364100000000	743.13993700000003	57.58287500000000	0.35597400000000	0.00000000000000	0.11595300000000	0.00000000000000	0.00000000000000	0.00000000000000	0.00000000000000	0.00000000000000	0.00000000000000	0.00000000000000	29.54077000000000	0.00000000000000	0.00000000000000	0.00000000000000	0.00000000000000	
17.66659800000000	42.35103500000000	745.04104199999995	57.97158200000000	0.35479300000000	0.00000000000000	0.11603900000000	0.00000000000000	0.00000000000000	0.00000000000000	0.00000000000000	0.00000000000000	0.00000000000000	0.00000000000000	29.80870900000000	0.00000000000000	0.00000000000000	0.00000000000000	0.00000000000000	
17.66826900000000	41.69607500000000	746.86960699999997	58.35307600000000	0.35364200000000	0.00000000000000	0.11612200000000	0.00000000000000	0.00000000000000	0.00000000000000	0.00000000000000	0.00000000000000	0.00000000000000	0.00000000000000	30.07158600000000	0.00000000000000	0.00000000000000	0.00000000000000	0.00000000000000	
17.66994400000000	41.04849400000000	748.62352899999996	58.72593400000000	0.35252000000000	0.00000000000000	0.11620400000000	0.00000000000000	0.00000000000000	0.00000000000000	0.00000000000000	0.00000000000000	0.00000000000000	0.00000000000000	30.32850200000000	0.00000000000000	0.00000000000000	0.00000000000000	0.00000000000000	
17.67160100000000	40.40799300000000	750.30079300000000	59.08874300000000	0.35142800000000	0.00000000000000	0.11628300000000	0.00000000000000	0.00000000000000	0.00000000000000	0.00000000000000	0.00000000000000	0.00000000000000	0.00000000000000	30.57856800000000	0.00000000000000	0.00000000000000	0.00000000000000	0.00000000000000	
17.67326800000000	39.77425000000000	751.89948700000002	59.44011300000000	0.35036300000000	0.00000000000000	0.11635900000000	0.00000000000000	0.00000000000000	0.00000000000000	0.00000000000000	0.00000000000000	0.00000000000000	0.00000000000000	30.82091000000000	0.00000000000000	0.00000000000000	0.00000000000000	0.00000000000000	
17.67493400000000	39.14692400000000	753.41781400000002	59.77867800000000	0.34932500000000	0.00000000000000	0.11643300000000	0.00000000000000	0.00000000000000	0.00000000000000	0.00000000000000	0.00000000000000	0.00000000000000	0.00000000000000	31.05467600000000	0.00000000000000	0.00000000000000	0.00000000000000	0.00000000000000	
